<svg xmlns="http://www.w3.org/2000/svg" width="64" height="64" xml:space="preserve"><g fill="#fff"><path d="M411 8.782V100h91.211z" data-original="#000000"></path><path d="M396 130c-8.284 0-15-6.716-15-15V0H166c-24.813 0-45 20.187-45 45v167.689c4.942-.448 9.943-.689 15-.689 51.128 0 96.897 23.376 127.186 60H426c8.284 0 15 6.716 15 15s-6.716 15-15 15H282.948a163.749 163.749 0 0 1 17.363 60H426c8.284 0 15 6.716 15 15s-6.716 15-15 15H300.311c-4.486 49.539-30.954 92.826-69.553 120H466c24.813 0 45-20.187 45-45V130zm30 82H206c-8.284 0-15-6.716-15-15s6.716-15 15-15h220c8.284 0 15 6.716 15 15s-6.716 15-15 15z" data-original="#000000"></path><path d="M136 242C61.561 242 1 302.561 1 377s60.561 135 135 135 135-60.561 135-135-60.561-135-135-135zm40 150h-40c-8.284 0-15-6.716-15-15v-60c0-8.284 6.716-15 15-15s15 6.716 15 15v45h25c8.284 0 15 6.716 15 15s-6.716 15-15 15z" data-original="#000000"></path></g></svg>